<?xml version="1.0" encoding="utf-8"?>
<!-- Generator: Adobe Illustrator 26.0.3, SVG Export Plug-In . SVG Version: 6.00 Build 0)  -->
<svg version="1.0" id="katman_1" xmlns="http://www.w3.org/2000/svg" xmlns:xlink="http://www.w3.org/1999/xlink" x="0px" y="0px"
	 viewBox="0 0 526 364" style="enable-background:new 0 0 526 364;" xml:space="preserve">
<style type="text/css">
	.st0{fill-rule:evenodd;clip-rule:evenodd;fill:#1D1D1B;}
</style>
<path class="st0" d="M183.9,162.3v-5c0-0.7,0.5-1.2,1.2-1.3h21.8c0.7,0,1.2,0.5,1.2,1.2c0,0,0,0,0,0c0,0,0,0.1,0,0.1v4.2
	c-0.3,1.2-0.8,2.2-1.6,3.1l-11.3,16.4c4.3-0.2,8.6,0.7,12.4,2.7c0.7,0.4,1.1,1.1,1.1,1.9v5.3c0,0.7-0.5,1.2-1.1,1.2
	c-0.2,0-0.3,0-0.5-0.1c-7.2-3.8-15.8-3.8-23,0c-0.8,0.4-1.5-0.4-1.5-1.2v-5c-0.1-1.2,0.2-2.4,0.8-3.4l13.1-19.1h-11.3
	C184.5,163.5,183.9,163,183.9,162.3L183.9,162.3L183.9,162.3L183.9,162.3z M95.4,192.2c-0.6,0-1.2-0.5-1.2-1.2v-35
	c0-0.7,0.6-1.3,1.3-1.3c0,0,0,0,0,0h6.4c0.7,0,1.2,0.5,1.3,1.2v4.6h0.1c1.2-4,4.9-6.6,9-6.5c4.3,0,7,2,8.9,6.5
	c2-5.2,7.9-7.8,13.1-5.8c1.7,0.6,3.2,1.7,4.3,3.1c2.2,2.9,1.7,7.2,1.7,11V191c0,0.7-0.6,1.3-1.3,1.3c0,0,0,0,0,0h-6.9
	c-0.7,0-1.2-0.6-1.2-1.2v-18.6c0.1-2.2,0-4.4-0.2-6.6c-0.3-1.9-2.1-3.3-4-3l0,0c-1.8,0.1-3.4,1.2-4.1,2.9c-0.6,2.2-0.8,4.5-0.6,6.7
	V191c0,0.7-0.6,1.3-1.3,1.3c0,0,0,0,0,0h-6.9c-0.7,0-1.2-0.6-1.2-1.2v-18.6c0-3.9,0.6-9.7-4.2-9.7c-4.9,0-4.7,5.6-4.7,9.7V191
	c0,0.7-0.6,1.3-1.3,1.3c0,0,0,0,0,0c0,0,0,0-0.1,0H95.4L95.4,192.2z M226.2,154.1c10.2,0,15.7,8.5,15.7,19.4
	c0,10.5-6.1,18.8-15.7,18.8c-10,0-15.5-8.5-15.5-19.2S216.2,154.1,226.2,154.1L226.2,154.1L226.2,154.1z M220.8,172
	c0,4.2,0,13.2,5.4,13.2s5.6-7.2,5.6-11.7c0.1-3.1-0.2-6.1-1-9.1c-0.4-2.1-2.4-3.5-4.5-3.3C221.1,161.1,220.8,167.8,220.8,172z
	 M255.4,192.2h-6.3c-0.6,0-1.1-0.6-1.1-1.2v-35c0.1-0.7,0.6-1.2,1.2-1.1h5.9c0.5,0,1,0.4,1.1,1v5.3h0.1c1.8-4.8,4.3-7,8.7-7
	c3-0.2,5.8,1.4,7.4,4.1c1.7,2.8,1.7,7.5,1.7,10.9v22.1c-0.1,0.6-0.6,1.1-1.2,1.1h-6.4c-0.6,0-1.1-0.5-1.1-1.1v-18.9
	c0-3.9,0.4-9.4-4-9.4c-1.6,0.1-3,1.2-3.6,2.8c-0.8,2.1-1.1,4.4-1,6.6V191C256.7,191.7,256.1,192.3,255.4,192.2L255.4,192.2
	L255.4,192.2L255.4,192.2z M173.1,191.7c-0.4,0.4-1.1,0.4-1.6,0.2c-1.5-1.2-2.8-2.7-3.8-4.5c-2.7,3.3-6.8,5.1-11.1,4.9
	c-5.8,0-10.1-3.5-10.1-10.4c-0.1-4.8,2.7-9.1,7.2-10.9c3.7-1.6,8.8-1.9,12.7-2.3v-0.9c0.2-1.7-0.1-3.3-0.8-4.8
	c-0.9-1.2-2.4-1.8-3.8-1.7c-2.6-0.2-4.9,1.5-5.4,4c-0.1,0.6-0.6,1.1-1.2,1.2l-6.5-0.7c-0.6-0.1-1.1-0.8-0.9-1.4
	c1.5-7.9,8.6-10.2,15.1-10.2c3.7-0.1,7.2,1.1,10.1,3.3c3.3,3,3,7.1,3,11.5v10.4c0,2.3,0.9,4.5,2.5,6.2c0.5,0.5,0.5,1.3,0,1.8
	C176.8,188.4,174.4,190.5,173.1,191.7L173.1,191.7L173.1,191.7z M166.5,175.6v-1.4c-4.9,0-10,1-10,6.4c0,2.8,1.5,4.6,4.1,4.6
	c2-0.1,3.8-1.2,4.7-2.9C166.3,180.2,166.7,177.9,166.5,175.6L166.5,175.6z M84.6,191.7c-0.4,0.4-1.1,0.4-1.6,0.2
	c-1.5-1.2-2.8-2.8-3.8-4.4c-2.7,3.3-6.8,5.1-11.1,4.9c-5.7,0-10.1-3.5-10.1-10.4c-0.2-4.8,2.7-9.1,7.2-10.9
	c3.6-1.6,8.7-1.9,12.6-2.3v-0.9c0.2-1.7-0.1-3.3-0.8-4.8c-0.9-1.2-2.3-1.8-3.8-1.7c-2.5-0.2-4.8,1.5-5.4,4c-0.1,0.6-0.5,1.1-1.2,1.2
	l-6.5-0.7c-0.6-0.1-1-0.8-0.9-1.4c1.5-7.9,8.6-10.2,15-10.2c3.7-0.1,7.2,1,10.1,3.3c3.3,3,3,7.1,3,11.5v10.4c0,2.3,0.9,4.5,2.5,6.2
	c0.5,0.5,0.5,1.2,0,1.7l0,0C88.4,188.4,85.9,190.5,84.6,191.7L84.6,191.7L84.6,191.7z M78,174.2c-4.9,0-10,1-10,6.4
	c0,2.8,1.5,4.6,4.1,4.6c2-0.1,3.8-1.2,4.6-2.9c1.1-2.1,1.5-4.4,1.3-6.8V174.2L78,174.2z M145.9,221.4c-21.1,0.1-41.5-8.1-57.2-23.1
	c-1.2-1.1-0.1-2.7,1.3-1.8c17.5,10.5,37.2,16.1,57.4,16c15-0.1,29.8-3.3,43.7-9.4c2.1-1,3.9,1.5,1.8,3.1
	C180.1,216.1,161.7,221.4,145.9,221.4z M197.8,200.2c-1.6-2.1-10.9-1-15.1-0.5c-1.3,0.1-1.5-1-0.3-1.8c7.4-5.3,19.5-3.8,20.9-2
	c1.4,1.8-0.4,14.1-7.3,20c-1.1,0.9-2.1,0.4-1.6-0.8C195.9,211.2,199.4,202.3,197.8,200.2L197.8,200.2z M411,186.4
	c1.3-0.9,2-2.4,2-3.9c0-1-0.4-2.1-1.1-2.8c-1.2-1-2.7-1.7-4.2-2.1l-6.3-2.3c-5.5-1.9-8.2-5.3-8.2-9.9c-0.1-2.9,1.3-5.7,3.7-7.5
	c2.8-2,6.3-3,9.8-2.8c3.2,0,6.4,0.6,9.4,1.6c0.5,0.1,0.9,0.4,1.3,0.7c0.3,0.4,0.4,0.9,0.4,1.4v1.9c0,0.8-0.3,1.3-1,1.3
	c-0.6,0-1.2-0.2-1.7-0.4c-2.6-0.7-5.3-1.1-8-1.1c-4.7,0-7.1,1.5-7.1,4.6c-0.1,1.1,0.4,2.2,1.2,2.9c1.4,1,3,1.8,4.7,2.3l5.9,2.1
	c2.3,0.8,4.5,2.2,6.2,3.9c1.3,1.6,2,3.7,2,5.8c0.1,3.1-1.3,6.1-3.9,8c-3,2.1-6.7,3.2-10.5,3c-3.8,0.1-7.6-0.6-11.2-2
	c-0.5-0.2-0.9-0.4-1.2-0.8c-0.2-0.4-0.4-0.9-0.3-1.4v-2c0-0.8,0.3-1.3,0.9-1.3c0.6,0.1,1.3,0.2,1.9,0.4c3.3,1,6.7,1.5,10.1,1.5
	C407.4,187.9,409.4,187.4,411,186.4L411,186.4L411,186.4z M378.4,156.5c-0.1-0.7,0.4-1.4,1.1-1.5c0.1,0,0.2,0,0.3,0h4.2
	c0.7-0.1,1.3,0.4,1.4,1.1c0,0,0,0,0,0c0,0.1,0,0.2,0,0.4v34.1c0.1,0.7-0.4,1.4-1.1,1.5c-0.1,0-0.2,0-0.4,0H381
	c-0.4,0-0.8-0.1-1.1-0.3c-0.3-0.3-0.5-0.7-0.6-1.1l-0.5-2.6c-3.9,3.2-8.7,4.9-13.8,5.1c-2.9,0.2-5.8-0.9-7.9-2.9
	c-1.9-2.3-2.9-5.3-2.7-8.3v-25.5c-0.1-0.7,0.4-1.4,1.1-1.5c0.1,0,0.2,0,0.3,0h4.2c0.7-0.1,1.3,0.4,1.4,1.1c0,0.1,0,0.2,0,0.4v23.2
	c-0.2,2.1,0.4,4.1,1.5,5.8c1.2,1.4,3,2.1,4.8,1.9c3.7-0.1,7.4-1.3,10.4-3.5L378.4,156.5L378.4,156.5z M339.7,192.2
	c-0.7,0.1-1.4-0.4-1.5-1.1c0,0,0,0,0,0c0-0.1,0-0.2,0-0.4v-23.7c0.1-1.9-0.3-3.8-1.4-5.4c-1.1-1.2-2.7-1.9-4.4-1.7
	c-3.8,0.1-7.5,1.2-10.7,3.3c0,0.4,0,0.7,0,1.1v26.5c0.1,0.7-0.4,1.4-1.1,1.5c-0.1,0-0.2,0-0.4,0h-4.3c-0.7,0.1-1.4-0.4-1.5-1.1
	c0,0,0,0,0,0c0-0.1,0-0.2,0-0.4v-23.7c0.1-1.9-0.3-3.8-1.4-5.4c-1.1-1.2-2.7-1.9-4.4-1.7c-3.8,0-7.5,1.1-10.6,3.2v27.6
	c0.1,0.7-0.4,1.4-1.1,1.5c-0.1,0-0.2,0-0.4,0h-4.3c-0.7,0.1-1.4-0.4-1.4-1.1c0-0.1,0-0.2,0-0.4v-34.1c-0.1-0.7,0.4-1.3,1.1-1.5
	c0.1,0,0.2,0,0.4,0h3.2c0.4,0,0.8,0.1,1.1,0.3c0.3,0.3,0.5,0.7,0.6,1.1l0.4,2.3c3.9-3,8.7-4.6,13.6-4.8c4.5,0,7.5,1.7,9.2,5.2
	c4.1-3.2,9.1-5,14.4-5.2c2.8-0.2,5.6,0.9,7.7,2.8c1.9,2.3,2.9,5.2,2.7,8.1v25.7c0.1,0.7-0.4,1.4-1.1,1.5c-0.1,0-0.2,0-0.4,0
	L339.7,192.2L339.7,192.2z M450.9,164.1c-1.8,2-2.7,5.3-2.7,9.8v0.9c0,4.4,0.9,7.6,2.7,9.6c2.3,2.2,5.4,3.4,8.5,3.1
	c2.2,0,4.4-0.4,6.5-1c0.4-0.1,0.7-0.2,1.1-0.2c0.6,0,0.9,0.5,0.9,1.4v1.9c0,0.5-0.1,1-0.3,1.4c-0.3,0.4-0.7,0.6-1.2,0.8
	c-2.6,1.1-5.4,1.6-8.2,1.5c-5.7,0-10-1.6-13-4.9c-3-3.2-4.5-7.9-4.5-14.1c0-6.2,1.5-10.8,4.6-14.2c3.5-3.5,8.2-5.3,13.1-5
	c2.6,0,5.2,0.5,7.6,1.4c0.4,0.1,0.8,0.4,1.1,0.7c0.2,0.4,0.4,0.9,0.3,1.5v1.9c0,1-0.3,1.4-0.9,1.4c-0.4,0-0.8-0.1-1.2-0.2
	c-1.9-0.6-4-0.9-6-0.9C455.6,161,452.7,162.1,450.9,164.1L450.9,164.1L450.9,164.1z M432.4,157.1c0.7-0.1,1.3,0.4,1.4,1.1
	c0,0.1,0,0.2,0,0.3v33.3c0.1,0.7-0.4,1.3-1.1,1.4c-0.1,0-0.2,0-0.4,0h-4.2c-0.7,0.1-1.3-0.4-1.4-1.1c0,0,0,0,0,0c0-0.1,0-0.2,0-0.3
	v-33.3c-0.1-0.7,0.4-1.3,1-1.4c0.1,0,0.2,0,0.4,0L432.4,157.1L432.4,157.1z M433.6,143.2c1.6,1.9,1.6,4.7,0,6.6
	c-1.9,1.6-4.7,1.6-6.6,0c-1.6-1.9-1.6-4.7,0-6.6C428.9,141.6,431.7,141.6,433.6,143.2z"/>
</svg>
