<?xml version="1.0" encoding="utf-8"?>
<!-- Generator: Adobe Illustrator 26.5.0, SVG Export Plug-In . SVG Version: 6.00 Build 0)  -->
<svg version="1.0" id="katman_1" xmlns="http://www.w3.org/2000/svg" xmlns:xlink="http://www.w3.org/1999/xlink" x="0px" y="0px"
	 viewBox="0 0 1190.55 841.89" style="enable-background:new 0 0 1190.55 841.89;" xml:space="preserve">
<style type="text/css">
</style>
<g>
	<path class="st0" d="M1059.26,417.3c-8.61,0.03-15.62-6.94-15.64-15.55c0-0.04,0-0.07,0-0.11c0-8.59,6.93-15.75,15.74-15.75
		c8.61-0.03,15.62,6.94,15.64,15.55c0,0.04,0,0.07,0,0.11C1075,410.25,1067.96,417.3,1059.26,417.3 M1059.36,387.45
		c-7.73-0.06-14.04,6.16-14.1,13.88c0,0.1,0,0.21,0,0.31c0,7.8,6.03,14.08,14.01,14.08c7.74,0.05,14.05-6.18,14.1-13.92
		c0-0.09,0-0.17,0-0.26c0.12-7.67-6-13.98-13.67-14.1C1059.58,387.45,1059.47,387.45,1059.36,387.45 M1062.81,403.16l4.44,6.21
		h-3.73l-3.98-5.69h-3.44v5.69h-3.12v-16.44h7.34c3.81,0,6.32,1.96,6.32,5.25C1066.63,400.86,1065.07,402.52,1062.81,403.16
		 M1060.18,395.74h-4.08v5.2h4.08c2.03,0,3.24-0.99,3.24-2.6C1063.42,396.66,1062.2,395.74,1060.18,395.74 M864.37,341.91
		c-8.81,0-15.95,7.13-15.96,15.94c0,8.81,7.13,15.95,15.94,15.96l0,0c8.81,0,15.96-7.14,15.96-15.96s-7.14-15.96-15.96-15.96l0,0
		 M875.37,386.09h-22.24c-0.9,0.01-1.62,0.74-1.62,1.64v97.05c0,0.92,0.72,1.64,1.62,1.64h22.25c0.9,0,1.64-0.73,1.64-1.64v-97.05
		c0-0.9-0.73-1.64-1.64-1.64 M924.82,386.18v-3.06c0-9.05,3.47-13.09,11.26-13.09c4.63,0,8.35,0.92,12.54,2.32
		c0.85,0.29,1.77-0.17,2.06-1.02c0.06-0.18,0.09-0.36,0.09-0.54v-18.73c0-0.72-0.47-1.35-1.16-1.56c-5.99-1.83-12.24-2.73-18.5-2.66
		c-20.54,0-31.4,11.58-31.4,33.46v4.71h-10.69c-0.9,0-1.63,0.72-1.64,1.62v19.22c0,0.9,0.73,1.64,1.64,1.64h10.69v76.31
		c0,0.89,0.72,1.62,1.62,1.62h22.25c0.9-0.01,1.62-0.74,1.62-1.64v-76.31h20.77l31.82,76.31c-3.61,8-7.16,9.6-12.01,9.6
		c-3.93,0-8.06-1.18-12.28-3.49c-0.39-0.21-0.86-0.26-1.28-0.12c-0.43,0.15-0.78,0.47-0.96,0.89l-7.54,16.53
		c-0.36,0.77-0.06,1.7,0.69,2.11c7.88,4.27,14.99,6.09,23.77,6.09c16.42,0,25.51-7.65,33.51-28.25l38.6-99.74
		c0.34-0.83-0.06-1.78-0.89-2.11c-0.2-0.08-0.41-0.12-0.62-0.12h-23.15c-0.69,0.01-1.3,0.45-1.53,1.1l-23.73,67.76l-26-67.81
		c-0.24-0.63-0.84-1.05-1.51-1.06H924.82 M839.53,386.09h-24.47v-25.03c0-0.9-0.73-1.62-1.62-1.62c-0.01,0-0.01,0-0.02,0h-22.25
		c-0.89,0.01-1.61,0.73-1.62,1.62v25.03h-10.71c-0.9,0-1.62,0.73-1.62,1.62c0,0.01,0,0.01,0,0.02v19.12c0,0.9,0.73,1.64,1.62,1.64
		h10.71v49.46c0,20,9.94,30.13,29.58,30.13c7.98,0,14.59-1.64,20.83-5.17c0.51-0.29,0.83-0.83,0.83-1.42v-18.2
		c0.01-0.9-0.7-1.63-1.6-1.64c-0.26,0-0.52,0.06-0.76,0.18c-4.28,2.16-8.43,3.15-13.06,3.15c-7.14,0-10.32-3.23-10.32-10.49v-45.99
		h24.47c0.9,0.01,1.63-0.71,1.64-1.61c0-0.01,0-0.02,0-0.03v-19.12c0.01-0.9-0.71-1.63-1.61-1.64
		C839.54,386.09,839.54,386.09,839.53,386.09 M722.22,384.06c-29.97,0-53.48,23.09-53.48,52.56c0,29.16,23.34,52,53.11,52
		c30.08,0,53.65-23,53.65-52.36C775.5,406.98,752.1,384.06,722.22,384.06 M722.22,466.06c-15.95,0-27.99-12.82-27.99-29.82
		c0-17.05,11.62-29.42,27.62-29.42c16.06,0,28.14,12.82,28.14,29.82C749.99,453.69,738.33,466.06,722.22,466.06 M614.96,384.06
		c-12.54,0-22.82,4.94-31.29,15.05v-11.38c0-0.9-0.72-1.63-1.62-1.64H559.8c-0.9,0.01-1.62,0.74-1.62,1.64V514.2
		c0,0.89,0.73,1.62,1.62,1.62h22.25c0.89-0.01,1.61-0.73,1.62-1.62v-39.91c8.49,9.5,18.76,14.15,31.29,14.15
		c23.28,0,46.84-17.92,46.84-52.18S638.25,384.06,614.96,384.06 M635.94,436.25c0,17.43-10.75,29.62-26.14,29.62
		c-15.22,0-26.69-12.74-26.69-29.62s11.47-29.62,26.69-29.62c15.14,0,26.15,12.45,26.15,29.62 M506.93,408.57
		c-24.84-5.93-29.26-10.09-29.26-18.83c0-8.26,7.77-13.81,19.33-13.81c11.19,0,22.31,4.21,33.95,12.89
		c0.73,0.54,1.75,0.38,2.29-0.34c0,0,0-0.01,0.01-0.01l12.14-17.11c0.49-0.7,0.36-1.66-0.31-2.2
		c-13.86-11.13-29.47-16.53-47.71-16.53c-26.84,0-45.57,16.09-45.57,39.13c0,24.7,16.16,33.45,44.1,40.19
		c23.77,5.47,27.79,10.06,27.79,18.28c0,9.08-8.11,14.73-21.18,14.73c-14.5,0-26.32-4.89-39.56-16.33c-0.33-0.28-0.76-0.42-1.19-0.4
		c-0.44,0.03-0.84,0.24-1.12,0.58l-13.61,16.18c-0.58,0.67-0.5,1.68,0.17,2.26c15,13.59,34.53,21.08,54.76,21
		c28.9,0,47.59-15.8,47.59-40.24c0-20.66-12.34-32.08-42.62-39.46 M258.91,276.59C179.43,276.59,115,341.02,115,420.5
		s64.43,143.91,143.91,143.91s143.91-64.43,143.91-143.91S338.38,276.59,258.91,276.59 M324.91,484.15c-2.57,4.23-8.09,5.57-12.31,3
		c-0.01-0.01-0.02-0.01-0.03-0.02c-33.8-20.65-76.31-25.31-126.41-13.87c-4.83,1.1-9.63-1.92-10.74-6.74
		c-1.1-4.83,1.92-9.63,6.74-10.74l0,0c54.81-12.54,101.84-7.14,139.76,16.04C326.15,474.41,327.48,479.93,324.91,484.15
		 M342.5,444.97c-3.24,5.27-10.14,6.93-15.42,3.7c-38.68-23.78-97.65-30.66-143.4-16.78c-6.04,1.43-12.1-2.3-13.53-8.34
		c-1.31-5.52,1.7-11.15,7.02-13.13c52.27-15.86,117.24-8.17,161.65,19.12c5.29,3.24,6.95,10.15,3.71,15.44c0,0,0,0.01-0.01,0.01
		 M344.04,404.17c-46.4-27.54-122.92-30.08-167.2-16.62c-7.08,2.26-14.65-1.65-16.91-8.73c-2.26-7.08,1.65-14.65,8.73-16.91
		c0.12-0.04,0.24-0.08,0.37-0.11c50.82-15.45,135.33-12.45,188.72,19.24c6.39,3.79,8.5,12.05,4.71,18.44
		c-3.79,6.39-12.05,8.5-18.44,4.71"/>
</g>
</svg>
