<?xml version="1.0" encoding="utf-8"?>
<!-- Generator: Adobe Illustrator 25.0.1, SVG Export Plug-In . SVG Version: 6.00 Build 0)  -->
<svg version="1.0" id="katman_1" xmlns="http://www.w3.org/2000/svg" xmlns:xlink="http://www.w3.org/1999/xlink" x="0px" y="0px"
	 viewBox="0 0 560 400" style="enable-background:new 0 0 560 400;" xml:space="preserve">
<path d="M212,231.7h-12.9v-45.6h-16.5v-10.9h46.1v10.9h-16.5v45.6H212z M279.8,231.7H267v-56.5h12.9V231.7z M507.7,220.6H530v11.2
	h-35.3v-56.6h13V220.6z M322.8,175.2h20.9c15.4,0,30.8,8.1,30.8,28.1c0,18.8-15,28.4-30,28.4h-21.6V175.2z M335.4,220.6h8
	c10.8,0,17.9-6.7,17.9-17.4c0-10.2-7.3-17.1-17.7-17.1h-8.3V220.6z M446.3,231.7h14.3l-23.4-56.5h-13.4l-23.5,56.5h13.9l4.2-11.2
	h23.8L446.3,231.7z M421.7,210.6l8.5-22.1l8.4,22.1H421.7z M96.2,183.5L79.6,200l-16.5-16.5l16.5-16.5L96.2,183.5z M96.2,216.5
	l-16.5,16.5l-16.5-16.5L79.6,200L96.2,216.5z M63.1,183.5L46.5,200L30,183.5l16.5-16.5L63.1,183.5z M129.3,183.5L112.7,200
	l-16.5-16.5l16.5-16.5L129.3,183.5z"/>
</svg>
